<?xml version="1.0" encoding="utf-8" standalone="no"?>
<!DOCTYPE svg PUBLIC "-//W3C//DTD SVG 1.1//EN"
  "http://www.w3.org/Graphics/SVG/1.1/DTD/svg11.dtd">
<svg xmlns:xlink="http://www.w3.org/1999/xlink" width="417.461906pt" height="266.263219pt" viewBox="0 0 417.461906 266.263219" xmlns="http://www.w3.org/2000/svg" version="1.1">
 <metadata>
  <rdf:RDF xmlns:dc="http://purl.org/dc/elements/1.1/" xmlns:cc="http://creativecommons.org/ns#" xmlns:rdf="http://www.w3.org/1999/02/22-rdf-syntax-ns#">
   <cc:Work>
    <dc:type rdf:resource="http://purl.org/dc/dcmitype/StillImage"/>
    <dc:date>2023-01-17T12:06:06.869860</dc:date>
    <dc:format>image/svg+xml</dc:format>
    <dc:creator>
     <cc:Agent>
      <dc:title>Matplotlib v3.5.1, https://matplotlib.org/</dc:title>
     </cc:Agent>
    </dc:creator>
   </cc:Work>
  </rdf:RDF>
 </metadata>
 <defs>
  <style type="text/css">*{stroke-linejoin: round; stroke-linecap: butt}</style>
 </defs>
 <g id="figure_1">
  <g id="patch_1">
   <path d="M 0 266.263219 
L 417.461906 266.263219 
L 417.461906 0 
L 0 0 
z
" style="fill: #ffffff"/>
  </g>
  <g id="axes_1">
   <g id="patch_2">
    <path d="M 69.478781 123.189 
L 410.261906 123.189 
L 410.261906 44.809 
L 69.478781 44.809 
z
" style="fill: #ffffff"/>
   </g>
   <g id="matplotlib.axis_1">
    <g id="xtick_1">
     <g id="line2d_1">
      <path d="M 84.968923 123.189 
L 84.968923 44.809 
" clip-path="url(#p03d1640220)" style="fill: none; stroke: #cccccc; stroke-linecap: round"/>
     </g>
    </g>
    <g id="xtick_2">
     <g id="line2d_2">
      <path d="M 123.694278 123.189 
L 123.694278 44.809 
" clip-path="url(#p03d1640220)" style="fill: none; stroke: #cccccc; stroke-linecap: round"/>
     </g>
    </g>
    <g id="xtick_3">
     <g id="line2d_3">
      <path d="M 162.419634 123.189 
L 162.419634 44.809 
" clip-path="url(#p03d1640220)" style="fill: none; stroke: #cccccc; stroke-linecap: round"/>
     </g>
    </g>
    <g id="xtick_4">
     <g id="line2d_4">
      <path d="M 201.144989 123.189 
L 201.144989 44.809 
" clip-path="url(#p03d1640220)" style="fill: none; stroke: #cccccc; stroke-linecap: round"/>
     </g>
    </g>
    <g id="xtick_5">
     <g id="line2d_5">
      <path d="M 239.870344 123.189 
L 239.870344 44.809 
" clip-path="url(#p03d1640220)" style="fill: none; stroke: #cccccc; stroke-linecap: round"/>
     </g>
    </g>
    <g id="xtick_6">
     <g id="line2d_6">
      <path d="M 278.595699 123.189 
L 278.595699 44.809 
" clip-path="url(#p03d1640220)" style="fill: none; stroke: #cccccc; stroke-linecap: round"/>
     </g>
    </g>
    <g id="xtick_7">
     <g id="line2d_7">
      <path d="M 317.321054 123.189 
L 317.321054 44.809 
" clip-path="url(#p03d1640220)" style="fill: none; stroke: #cccccc; stroke-linecap: round"/>
     </g>
    </g>
    <g id="xtick_8">
     <g id="line2d_8">
      <path d="M 356.046409 123.189 
L 356.046409 44.809 
" clip-path="url(#p03d1640220)" style="fill: none; stroke: #cccccc; stroke-linecap: round"/>
     </g>
    </g>
    <g id="xtick_9">
     <g id="line2d_9">
      <path d="M 394.771764 123.189 
L 394.771764 44.809 
" clip-path="url(#p03d1640220)" style="fill: none; stroke: #cccccc; stroke-linecap: round"/>
     </g>
    </g>
   </g>
   <g id="matplotlib.axis_2">
    <g id="ytick_1">
     <g id="line2d_10">
      <path d="M 69.478781 44.809 
L 410.261906 44.809 
" clip-path="url(#p03d1640220)" style="fill: none; stroke: #cccccc; stroke-linecap: round"/>
     </g>
     <g id="text_1">
      <!-- −100 -->
      <g style="fill: #262626" transform="translate(35.203 48.745797)scale(0.11 -0.11)">
       <defs>
        <path id="ArialMT-2212" d="M 3381 1997 
L 356 1997 
L 356 2522 
L 3381 2522 
L 3381 1997 
z
" transform="scale(0.015625)"/>
        <path id="ArialMT-31" d="M 2384 0 
L 1822 0 
L 1822 3584 
Q 1619 3391 1289 3197 
Q 959 3003 697 2906 
L 697 3450 
Q 1169 3672 1522 3987 
Q 1875 4303 2022 4600 
L 2384 4600 
L 2384 0 
z
" transform="scale(0.015625)"/>
        <path id="ArialMT-30" d="M 266 2259 
Q 266 3072 433 3567 
Q 600 4063 929 4331 
Q 1259 4600 1759 4600 
Q 2128 4600 2406 4451 
Q 2684 4303 2865 4023 
Q 3047 3744 3150 3342 
Q 3253 2941 3253 2259 
Q 3253 1453 3087 958 
Q 2922 463 2592 192 
Q 2263 -78 1759 -78 
Q 1097 -78 719 397 
Q 266 969 266 2259 
z
M 844 2259 
Q 844 1131 1108 757 
Q 1372 384 1759 384 
Q 2147 384 2411 759 
Q 2675 1134 2675 2259 
Q 2675 3391 2411 3762 
Q 2147 4134 1753 4134 
Q 1366 4134 1134 3806 
Q 844 3388 844 2259 
z
" transform="scale(0.015625)"/>
       </defs>
       <use xlink:href="#ArialMT-2212"/>
       <use xlink:href="#ArialMT-31" x="58.398438"/>
       <use xlink:href="#ArialMT-30" x="114.013672"/>
       <use xlink:href="#ArialMT-30" x="169.628906"/>
      </g>
     </g>
    </g>
    <g id="ytick_2">
     <g id="line2d_11">
      <path d="M 69.478781 83.999 
L 410.261906 83.999 
" clip-path="url(#p03d1640220)" style="fill: none; stroke: #cccccc; stroke-linecap: round"/>
     </g>
     <g id="text_2">
      <!-- 0 -->
      <g style="fill: #262626" transform="translate(53.86175 87.935797)scale(0.11 -0.11)">
       <use xlink:href="#ArialMT-30"/>
      </g>
     </g>
    </g>
    <g id="ytick_3">
     <g id="line2d_12">
      <path d="M 69.478781 123.189 
L 410.261906 123.189 
" clip-path="url(#p03d1640220)" style="fill: none; stroke: #cccccc; stroke-linecap: round"/>
     </g>
     <g id="text_3">
      <!-- 100 -->
      <g style="fill: #262626" transform="translate(41.627688 127.125797)scale(0.11 -0.11)">
       <use xlink:href="#ArialMT-31"/>
       <use xlink:href="#ArialMT-30" x="55.615234"/>
       <use xlink:href="#ArialMT-30" x="111.230469"/>
      </g>
     </g>
    </g>
    <g id="text_4">
     <!-- Eye movement -->
     <g style="fill: #262626" transform="translate(15.789375 124.013375)rotate(-90)scale(0.12 -0.12)">
      <defs>
       <path id="ArialMT-45" d="M 506 0 
L 506 4581 
L 3819 4581 
L 3819 4041 
L 1113 4041 
L 1113 2638 
L 3647 2638 
L 3647 2100 
L 1113 2100 
L 1113 541 
L 3925 541 
L 3925 0 
L 506 0 
z
" transform="scale(0.015625)"/>
       <path id="ArialMT-79" d="M 397 -1278 
L 334 -750 
Q 519 -800 656 -800 
Q 844 -800 956 -737 
Q 1069 -675 1141 -563 
Q 1194 -478 1313 -144 
Q 1328 -97 1363 -6 
L 103 3319 
L 709 3319 
L 1400 1397 
Q 1534 1031 1641 628 
Q 1738 1016 1872 1384 
L 2581 3319 
L 3144 3319 
L 1881 -56 
Q 1678 -603 1566 -809 
Q 1416 -1088 1222 -1217 
Q 1028 -1347 759 -1347 
Q 597 -1347 397 -1278 
z
" transform="scale(0.015625)"/>
       <path id="ArialMT-65" d="M 2694 1069 
L 3275 997 
Q 3138 488 2766 206 
Q 2394 -75 1816 -75 
Q 1088 -75 661 373 
Q 234 822 234 1631 
Q 234 2469 665 2931 
Q 1097 3394 1784 3394 
Q 2450 3394 2872 2941 
Q 3294 2488 3294 1666 
Q 3294 1616 3291 1516 
L 816 1516 
Q 847 969 1125 678 
Q 1403 388 1819 388 
Q 2128 388 2347 550 
Q 2566 713 2694 1069 
z
M 847 1978 
L 2700 1978 
Q 2663 2397 2488 2606 
Q 2219 2931 1791 2931 
Q 1403 2931 1139 2672 
Q 875 2413 847 1978 
z
" transform="scale(0.015625)"/>
       <path id="ArialMT-20" transform="scale(0.015625)"/>
       <path id="ArialMT-6d" d="M 422 0 
L 422 3319 
L 925 3319 
L 925 2853 
Q 1081 3097 1340 3245 
Q 1600 3394 1931 3394 
Q 2300 3394 2536 3241 
Q 2772 3088 2869 2813 
Q 3263 3394 3894 3394 
Q 4388 3394 4653 3120 
Q 4919 2847 4919 2278 
L 4919 0 
L 4359 0 
L 4359 2091 
Q 4359 2428 4304 2576 
Q 4250 2725 4106 2815 
Q 3963 2906 3769 2906 
Q 3419 2906 3187 2673 
Q 2956 2441 2956 1928 
L 2956 0 
L 2394 0 
L 2394 2156 
Q 2394 2531 2256 2718 
Q 2119 2906 1806 2906 
Q 1569 2906 1367 2781 
Q 1166 2656 1075 2415 
Q 984 2175 984 1722 
L 984 0 
L 422 0 
z
" transform="scale(0.015625)"/>
       <path id="ArialMT-6f" d="M 213 1659 
Q 213 2581 725 3025 
Q 1153 3394 1769 3394 
Q 2453 3394 2887 2945 
Q 3322 2497 3322 1706 
Q 3322 1066 3130 698 
Q 2938 331 2570 128 
Q 2203 -75 1769 -75 
Q 1072 -75 642 372 
Q 213 819 213 1659 
z
M 791 1659 
Q 791 1022 1069 705 
Q 1347 388 1769 388 
Q 2188 388 2466 706 
Q 2744 1025 2744 1678 
Q 2744 2294 2464 2611 
Q 2184 2928 1769 2928 
Q 1347 2928 1069 2612 
Q 791 2297 791 1659 
z
" transform="scale(0.015625)"/>
       <path id="ArialMT-76" d="M 1344 0 
L 81 3319 
L 675 3319 
L 1388 1331 
Q 1503 1009 1600 663 
Q 1675 925 1809 1294 
L 2547 3319 
L 3125 3319 
L 1869 0 
L 1344 0 
z
" transform="scale(0.015625)"/>
       <path id="ArialMT-6e" d="M 422 0 
L 422 3319 
L 928 3319 
L 928 2847 
Q 1294 3394 1984 3394 
Q 2284 3394 2536 3286 
Q 2788 3178 2913 3003 
Q 3038 2828 3088 2588 
Q 3119 2431 3119 2041 
L 3119 0 
L 2556 0 
L 2556 2019 
Q 2556 2363 2490 2533 
Q 2425 2703 2258 2804 
Q 2091 2906 1866 2906 
Q 1506 2906 1245 2678 
Q 984 2450 984 1813 
L 984 0 
L 422 0 
z
" transform="scale(0.015625)"/>
       <path id="ArialMT-74" d="M 1650 503 
L 1731 6 
Q 1494 -44 1306 -44 
Q 1000 -44 831 53 
Q 663 150 594 308 
Q 525 466 525 972 
L 525 2881 
L 113 2881 
L 113 3319 
L 525 3319 
L 525 4141 
L 1084 4478 
L 1084 3319 
L 1650 3319 
L 1650 2881 
L 1084 2881 
L 1084 941 
Q 1084 700 1114 631 
Q 1144 563 1211 522 
Q 1278 481 1403 481 
Q 1497 481 1650 503 
z
" transform="scale(0.015625)"/>
      </defs>
      <use xlink:href="#ArialMT-45"/>
      <use xlink:href="#ArialMT-79" x="66.699219"/>
      <use xlink:href="#ArialMT-65" x="116.699219"/>
      <use xlink:href="#ArialMT-20" x="172.314453"/>
      <use xlink:href="#ArialMT-6d" x="200.097656"/>
      <use xlink:href="#ArialMT-6f" x="283.398438"/>
      <use xlink:href="#ArialMT-76" x="339.013672"/>
      <use xlink:href="#ArialMT-65" x="389.013672"/>
      <use xlink:href="#ArialMT-6d" x="444.628906"/>
      <use xlink:href="#ArialMT-65" x="527.929688"/>
      <use xlink:href="#ArialMT-6e" x="583.544922"/>
      <use xlink:href="#ArialMT-74" x="639.160156"/>
     </g>
     <!-- [$\mu$V] -->
     <g style="fill: #262626" transform="translate(28.683 95.159)rotate(-90)scale(0.12 -0.12)">
      <defs>
       <path id="ArialMT-5b" d="M 434 -1272 
L 434 4581 
L 1675 4581 
L 1675 4116 
L 997 4116 
L 997 -806 
L 1675 -806 
L 1675 -1272 
L 434 -1272 
z
" transform="scale(0.015625)"/>
       <path id="DejaVuSans-Oblique-3bc" d="M -84 -1331 
L 856 3500 
L 1434 3500 
L 1009 1322 
Q 997 1256 987 1175 
Q 978 1094 978 1013 
Q 978 722 1161 565 
Q 1344 409 1684 409 
Q 2147 409 2431 671 
Q 2716 934 2816 1459 
L 3213 3500 
L 3788 3500 
L 3266 809 
Q 3253 750 3248 706 
Q 3244 663 3244 628 
Q 3244 531 3283 486 
Q 3322 441 3406 441 
Q 3438 441 3492 456 
Q 3547 472 3647 513 
L 3559 50 
Q 3422 -19 3297 -55 
Q 3172 -91 3053 -91 
Q 2847 -91 2730 40 
Q 2613 172 2613 403 
Q 2438 153 2195 31 
Q 1953 -91 1625 -91 
Q 1334 -91 1117 43 
Q 900 178 831 397 
L 494 -1331 
L -84 -1331 
z
" transform="scale(0.015625)"/>
       <path id="ArialMT-56" d="M 1803 0 
L 28 4581 
L 684 4581 
L 1875 1253 
Q 2019 853 2116 503 
Q 2222 878 2363 1253 
L 3600 4581 
L 4219 4581 
L 2425 0 
L 1803 0 
z
" transform="scale(0.015625)"/>
       <path id="ArialMT-5d" d="M 1363 -1272 
L 122 -1272 
L 122 -806 
L 800 -806 
L 800 4116 
L 122 4116 
L 122 4581 
L 1363 4581 
L 1363 -1272 
z
" transform="scale(0.015625)"/>
      </defs>
      <use xlink:href="#ArialMT-5b" transform="translate(0 0.421875)"/>
      <use xlink:href="#DejaVuSans-Oblique-3bc" transform="translate(27.783203 0.421875)"/>
      <use xlink:href="#ArialMT-56" transform="translate(91.40625 0.421875)"/>
      <use xlink:href="#ArialMT-5d" transform="translate(158.105469 0.421875)"/>
     </g>
    </g>
   </g>
   <g id="line2d_13">
    <path d="M 84.968923 79.801325 
L 85.589771 81.101721 
L 86.210618 81.811226 
L 86.831465 81.700188 
L 88.07316 80.373101 
L 88.694008 80.245257 
L 89.314855 80.846233 
L 91.177397 84.360697 
L 91.798244 85.004038 
L 92.419092 85.275745 
L 93.660787 85.382048 
L 94.281634 85.362276 
L 94.902481 85.193772 
L 95.523329 84.802087 
L 96.765023 83.771668 
L 97.385871 83.593421 
L 98.006718 83.830806 
L 99.86926 85.39454 
L 101.731802 86.039956 
L 102.35265 86.716871 
L 103.594345 88.533633 
L 104.215192 88.902642 
L 104.836039 88.581685 
L 106.077734 87.15779 
L 106.698581 87.202775 
L 107.319429 88.158105 
L 109.181971 92.857014 
L 109.802818 93.607758 
L 110.423666 93.795726 
L 111.044513 93.602719 
L 112.286208 92.864422 
L 112.907055 92.703411 
L 113.527903 92.910642 
L 114.14875 93.526401 
L 115.390445 95.113952 
L 116.011292 95.325877 
L 116.63214 94.80306 
L 118.494682 91.326115 
L 119.115529 91.030294 
L 119.736376 91.574466 
L 120.357224 92.843935 
L 122.219766 98.037515 
L 122.840613 99.119448 
L 123.461461 99.490357 
L 124.082308 99.211179 
L 124.703155 98.623909 
L 125.324003 98.276938 
L 125.94485 98.727109 
L 126.565698 100.293151 
L 127.186545 102.883374 
L 128.42824 108.964608 
L 129.049087 111.168034 
L 129.669934 112.33832 
L 130.290782 112.584922 
L 131.532477 112.046472 
L 132.153324 112.153029 
L 134.015866 113.770522 
L 134.636713 113.582644 
L 135.257561 112.761425 
L 137.120103 108.939761 
L 137.74095 108.148164 
L 138.361798 107.809885 
L 139.603492 107.848329 
L 140.22434 107.605099 
L 140.845187 106.796537 
L 141.466035 105.324851 
L 143.328577 99.196673 
L 143.949424 97.907379 
L 144.570271 97.439857 
L 145.191119 97.64462 
L 145.811966 98.055613 
L 146.432814 98.047222 
L 147.053661 97.095329 
L 147.674508 95.013949 
L 148.916203 88.664594 
L 149.53705 85.49008 
L 150.157898 82.931325 
L 150.778745 81.148384 
L 151.399593 80.017882 
L 152.641287 78.211599 
L 153.262135 76.727828 
L 154.503829 72.212888 
L 155.124677 69.888309 
L 155.745524 68.099742 
L 156.366372 66.989453 
L 157.608066 65.685461 
L 158.228914 64.67875 
L 159.470608 61.825221 
L 160.091456 60.787346 
L 160.712303 60.454832 
L 161.333151 60.739308 
L 161.953998 61.23147 
L 162.574845 61.436321 
L 163.195693 61.02367 
L 163.81654 59.9637 
L 165.058235 57.140632 
L 165.679082 56.301725 
L 166.29993 56.330532 
L 166.920777 57.262132 
L 168.162472 60.371387 
L 168.783319 61.455776 
L 169.404167 61.754153 
L 170.025014 61.372646 
L 170.645861 60.730072 
L 171.266709 60.295434 
L 171.887556 60.312622 
L 173.129251 61.106193 
L 173.750098 61.268937 
L 175.61264 60.896472 
L 176.233488 61.449831 
L 176.854335 62.521744 
L 178.09603 65.028431 
L 178.716877 65.865577 
L 179.337725 66.351956 
L 180.579419 67.038376 
L 181.200267 67.582676 
L 182.441961 69.154579 
L 183.683656 70.775472 
L 186.787893 74.236494 
L 187.40874 74.337881 
L 188.029588 73.806774 
L 189.89213 70.726229 
L 190.512977 70.773934 
L 191.133825 71.770853 
L 192.375519 75.126207 
L 192.996367 76.356991 
L 193.617214 76.813831 
L 194.238062 76.587507 
L 194.858909 76.070716 
L 195.479756 75.742846 
L 196.100604 75.940167 
L 196.721451 76.73304 
L 197.963146 79.363005 
L 199.204841 81.941382 
L 199.825688 82.936899 
L 200.446535 83.685278 
L 201.067383 84.18207 
L 202.309077 84.65036 
L 202.929925 84.843628 
L 203.550772 85.176612 
L 204.17162 85.73099 
L 206.034162 87.973804 
L 206.655009 88.267095 
L 207.275856 88.14976 
L 208.517551 87.479536 
L 209.138399 87.52478 
L 209.759246 88.019126 
L 211.000941 89.385512 
L 211.621788 89.430355 
L 212.242635 88.729018 
L 214.105178 85.183323 
L 214.726025 85.014584 
L 215.346872 85.63374 
L 216.588567 88.201476 
L 217.209415 89.440304 
L 217.830262 90.260156 
L 218.451109 90.517513 
L 219.071957 90.216944 
L 220.313651 88.766426 
L 220.934499 88.324187 
L 221.555346 88.479513 
L 222.176194 89.23249 
L 223.417888 91.156518 
L 224.038736 91.579811 
L 225.901278 91.628862 
L 226.522125 92.233212 
L 227.76382 93.995184 
L 228.384667 94.451767 
L 229.005515 94.318733 
L 229.626362 93.647333 
L 230.868057 91.843346 
L 231.488904 91.399958 
L 232.109752 91.536405 
L 232.730599 92.218548 
L 234.593141 95.173692 
L 235.213988 95.577928 
L 235.834836 95.467105 
L 236.455683 94.928892 
L 237.697378 93.554771 
L 238.318225 93.27345 
L 238.939073 93.454291 
L 240.801615 95.123364 
L 241.422462 95.065258 
L 242.04331 94.373579 
L 243.905852 90.77931 
L 244.526699 90.335859 
L 245.147546 90.529297 
L 246.389241 91.633532 
L 247.010089 91.738323 
L 247.630936 91.226637 
L 248.251783 90.18135 
L 249.493478 87.817972 
L 250.114325 87.222191 
L 250.735173 87.250206 
L 251.35602 87.804153 
L 253.83941 91.025736 
L 254.460257 91.602674 
L 255.081104 92.017316 
L 255.701952 92.166176 
L 256.322799 91.927612 
L 256.943647 91.200205 
L 257.564494 89.960277 
L 258.806189 86.810287 
L 259.427036 85.885035 
L 260.047883 86.064903 
L 260.668731 87.414904 
L 261.910426 91.468505 
L 262.531273 92.702606 
L 263.15212 92.869571 
L 263.772968 92.09075 
L 265.63551 88.171991 
L 266.256357 87.561482 
L 266.877205 87.516712 
L 268.118899 88.246175 
L 268.739747 88.35506 
L 269.360594 87.974939 
L 269.981442 87.129439 
L 271.223136 85.066675 
L 271.843984 84.372534 
L 272.464831 84.008964 
L 273.085678 83.905452 
L 273.706526 84.016912 
L 274.327373 84.385081 
L 274.948221 85.072077 
L 276.189915 86.973519 
L 276.810763 87.508907 
L 277.43161 87.248713 
L 278.052457 86.072093 
L 279.915 80.829917 
L 280.535847 80.421182 
L 281.156694 81.249111 
L 281.777542 83.135473 
L 283.019236 87.595482 
L 283.640084 88.57486 
L 284.260931 88.0189 
L 284.881779 86.048843 
L 286.123473 80.769339 
L 286.744321 79.189621 
L 287.365168 78.943369 
L 287.986015 79.85473 
L 289.22771 82.857425 
L 289.848558 83.813667 
L 290.469405 83.99684 
L 291.090252 83.411341 
L 292.952794 79.908257 
L 293.573642 79.396181 
L 294.194489 79.486964 
L 296.057031 81.054197 
L 296.677879 81.287986 
L 297.298726 81.321237 
L 297.919573 81.191183 
L 298.540421 80.879787 
L 299.161268 80.349195 
L 301.02381 78.189338 
L 301.644658 77.822931 
L 302.265505 77.790394 
L 304.128047 78.323141 
L 304.748895 77.986137 
L 305.369742 77.190429 
L 307.232284 73.893842 
L 307.853131 73.415662 
L 308.473979 73.499555 
L 309.094826 74.073377 
L 310.336521 76.061966 
L 311.578216 78.13058 
L 312.199063 78.776664 
L 312.81991 78.922211 
L 313.440758 78.468029 
L 314.061605 77.460754 
L 315.3033 74.742263 
L 315.924147 73.770956 
L 316.544995 73.56288 
L 317.165842 74.297826 
L 319.028384 78.967211 
L 319.649232 79.372771 
L 320.270079 78.717889 
L 321.511774 76.045524 
L 322.132621 75.330932 
L 322.753469 75.570317 
L 323.374316 76.671513 
L 324.616011 79.496448 
L 325.236858 80.111279 
L 325.857705 79.855959 
L 327.0994 77.968388 
L 327.720248 77.418839 
L 328.341095 77.603707 
L 330.203637 80.02907 
L 330.824484 80.148426 
L 332.687027 79.164982 
L 333.307874 79.349092 
L 333.928721 79.763436 
L 334.549569 80.019273 
L 335.170416 79.729316 
L 335.791263 78.75185 
L 337.032958 75.865565 
L 337.653806 75.000262 
L 338.274653 75.110901 
L 338.8955 76.317291 
L 339.516348 78.415142 
L 340.758042 83.263246 
L 341.37889 84.88095 
L 341.999737 85.509028 
L 342.620585 85.209718 
L 344.483127 82.553252 
L 345.103974 82.346864 
L 345.724821 82.753609 
L 346.345669 83.675926 
L 348.208211 87.294675 
L 348.829058 88.179542 
L 349.449906 88.833523 
L 350.070753 89.300058 
L 350.6916 89.58459 
L 351.312448 89.624558 
L 351.933295 89.325421 
L 352.554143 88.637267 
L 354.416685 85.406199 
L 355.037532 84.801605 
L 355.658379 84.922171 
L 356.279227 85.931065 
L 356.900074 87.776305 
L 358.762616 94.555425 
L 359.383464 95.583504 
L 360.004311 95.448477 
L 360.625158 94.246687 
L 361.866853 90.738546 
L 362.487701 89.857193 
L 363.108548 90.220651 
L 363.729395 91.779207 
L 364.97109 96.076791 
L 365.591938 97.229396 
L 366.212785 97.056286 
L 366.833632 95.679748 
L 368.075327 91.771507 
L 368.696174 90.587967 
L 369.317022 90.334214 
L 369.937869 90.781425 
L 370.558717 91.40041 
L 371.179564 91.646908 
L 371.800411 91.252227 
L 373.042106 89.4916 
L 373.662953 89.199553 
L 374.283801 89.857295 
L 374.904648 91.420676 
L 376.146343 95.171836 
L 376.76719 95.99539 
L 377.388038 95.562904 
L 378.008885 93.99195 
L 379.25058 89.524634 
L 379.871427 87.791865 
L 380.492275 86.887448 
L 381.113122 86.886791 
L 381.733969 87.648374 
L 382.975664 89.973106 
L 383.596511 90.548893 
L 384.217359 90.226161 
L 384.838206 89.010568 
L 386.079901 85.696978 
L 386.700748 84.79155 
L 387.321596 84.811895 
L 389.184138 86.867399 
L 389.804985 86.525159 
L 390.425833 85.462497 
L 391.667527 82.872525 
L 392.288375 82.266991 
L 392.909222 82.403802 
L 393.530069 83.132952 
L 394.150917 84.086758 
L 394.771764 84.828725 
L 394.771764 84.828725 
" clip-path="url(#p03d1640220)" style="fill: none; stroke: #4c72b0; stroke-width: 1.5; stroke-linecap: round"/>
   </g>
   <g id="line2d_14">
    <path d="M 84.968923 90.560957 
L 85.589771 91.409113 
L 86.210618 91.656511 
L 86.831465 91.071452 
L 88.07316 88.747718 
L 88.694008 88.093177 
L 89.314855 88.148843 
L 91.177397 89.93547 
L 91.798244 89.977416 
L 92.419092 89.636046 
L 93.660787 88.482345 
L 94.902481 86.992351 
L 96.144176 84.714081 
L 96.765023 83.545313 
L 97.385871 82.673606 
L 98.006718 82.2095 
L 99.86926 81.6341 
L 101.731802 80.113816 
L 102.35265 80.068929 
L 103.594345 80.454129 
L 104.215192 80.117343 
L 104.836039 79.098821 
L 106.077734 76.304813 
L 106.698581 75.676932 
L 107.319429 75.968072 
L 109.181971 78.742895 
L 109.802818 78.881932 
L 110.423666 78.475866 
L 111.66536 76.777717 
L 112.286208 75.877173 
L 112.907055 75.200366 
L 113.527903 74.912682 
L 114.14875 75.05517 
L 115.390445 75.764931 
L 116.011292 75.574245 
L 116.63214 74.673958 
L 118.494682 70.217868 
L 119.115529 69.647176 
L 119.736376 69.942874 
L 120.357224 70.991097 
L 122.219766 75.695454 
L 122.840613 76.6762 
L 123.461461 76.978175 
L 124.082308 76.662501 
L 124.703155 76.070942 
L 125.324003 75.751411 
L 125.94485 76.260314 
L 126.565698 77.916257 
L 127.186545 80.627895 
L 128.42824 87.049622 
L 129.049087 89.473762 
L 129.669934 90.898973 
L 130.290782 91.434521 
L 131.532477 91.573409 
L 132.153324 92.066751 
L 134.015866 95.029558 
L 134.636713 95.349871 
L 135.257561 95.065284 
L 137.120103 93.010044 
L 137.74095 92.854154 
L 138.361798 93.172579 
L 140.22434 95.053183 
L 140.845187 94.975093 
L 141.466035 94.249733 
L 143.328577 90.439713 
L 143.949424 89.943581 
L 144.570271 90.27669 
L 146.432814 93.318908 
L 147.053661 93.1862 
L 147.674508 91.925783 
L 148.916203 87.217028 
L 149.53705 84.858427 
L 150.157898 83.110233 
L 150.778745 82.130914 
L 151.399593 81.79575 
L 152.02044 81.752403 
L 152.641287 81.550751 
L 153.262135 80.83078 
L 153.882982 79.500984 
L 155.124677 76.201216 
L 155.745524 75.118084 
L 156.366372 74.695837 
L 157.608066 74.712652 
L 158.228914 74.337391 
L 159.470608 72.68548 
L 160.091456 72.216354 
L 160.712303 72.430377 
L 161.333151 73.238715 
L 161.953998 74.231735 
L 162.574845 74.914161 
L 163.195693 74.955501 
L 163.81654 74.325558 
L 165.058235 72.288916 
L 165.679082 71.805625 
L 166.29993 72.164682 
L 166.920777 73.401172 
L 168.162472 77.04499 
L 168.783319 78.359665 
L 169.404167 78.864026 
L 170.025014 78.66436 
L 170.645861 78.179585 
L 171.266709 77.878823 
L 171.887556 78.006166 
L 173.129251 78.950141 
L 173.750098 79.153833 
L 174.370946 79.020281 
L 174.991793 78.772221 
L 175.61264 78.770455 
L 176.233488 79.276449 
L 176.854335 80.279794 
L 178.09603 82.588135 
L 178.716877 83.296784 
L 179.337725 83.635907 
L 180.579419 83.97365 
L 181.200267 84.317551 
L 182.441961 85.439314 
L 183.683656 86.548293 
L 186.167046 88.260104 
L 186.787893 88.492234 
L 187.40874 88.254705 
L 188.029588 87.374208 
L 189.89213 83.186179 
L 190.512977 82.845936 
L 191.133825 83.446194 
L 192.375519 85.984749 
L 192.996367 86.796948 
L 193.617214 86.829413 
L 194.238062 86.173548 
L 195.479756 84.456259 
L 196.100604 84.211362 
L 196.721451 84.558707 
L 197.963146 86.289962 
L 199.204841 87.963613 
L 199.825688 88.506073 
L 200.446535 88.801699 
L 201.067383 88.846555 
L 202.309077 88.415273 
L 202.929925 88.16177 
L 203.550772 88.050567 
L 204.17162 88.163782 
L 206.034162 89.105601 
L 206.655009 88.974053 
L 207.275856 88.436835 
L 208.517551 86.9427 
L 209.138399 86.584403 
L 209.759246 86.681208 
L 210.380093 87.046484 
L 211.000941 87.272005 
L 211.621788 86.93955 
L 212.242635 85.868301 
L 214.105178 81.258269 
L 214.726025 80.750056 
L 215.346872 81.03761 
L 215.96772 81.894659 
L 217.209415 83.899606 
L 217.830262 84.422466 
L 218.451109 84.392231 
L 219.071957 83.813647 
L 220.313651 81.83622 
L 220.934499 81.145201 
L 221.555346 81.061633 
L 222.176194 81.585747 
L 223.417888 83.083024 
L 224.038736 83.308886 
L 225.901278 82.809213 
L 226.522125 83.253359 
L 227.76382 84.729498 
L 228.384667 85.060624 
L 229.005515 84.813837 
L 229.626362 84.040372 
L 230.868057 82.067045 
L 231.488904 81.556193 
L 232.109752 81.63653 
L 232.730599 82.273853 
L 234.593141 85.161837 
L 235.213988 85.565941 
L 235.834836 85.465954 
L 236.455683 84.949388 
L 237.697378 83.65019 
L 238.318225 83.421685 
L 238.939073 83.665277 
L 240.801615 85.580159 
L 241.422462 85.622502 
L 242.04331 85.040131 
L 243.905852 81.823798 
L 244.526699 81.521851 
L 245.147546 81.864021 
L 246.389241 83.28633 
L 247.010089 83.559942 
L 247.630936 83.223213 
L 248.251783 82.358681 
L 249.493478 80.37272 
L 250.114325 79.97285 
L 250.735173 80.201117 
L 251.35602 80.959358 
L 253.83941 85.033368 
L 255.081104 86.468796 
L 255.701952 86.843088 
L 256.322799 86.831935 
L 256.943647 86.333627 
L 257.564494 85.324172 
L 258.806189 82.637844 
L 259.427036 81.945052 
L 260.047883 82.357353 
L 260.668731 83.939508 
L 261.910426 88.45593 
L 262.531273 89.920461 
L 263.15212 90.317012 
L 263.772968 89.766727 
L 265.63551 86.524634 
L 266.256357 86.135778 
L 266.877205 86.310304 
L 268.118899 87.470569 
L 268.739747 87.790665 
L 269.360594 87.618772 
L 269.981442 86.978361 
L 271.223136 85.315671 
L 271.843984 84.81618 
L 272.464831 84.643476 
L 273.085678 84.726934 
L 273.706526 85.021379 
L 274.327373 85.568478 
L 274.948221 86.430304 
L 276.189915 88.669059 
L 276.810763 89.36694 
L 277.43161 89.265119 
L 278.052457 88.242696 
L 279.915 83.436799 
L 280.535847 83.164276 
L 281.156694 84.123696 
L 281.777542 86.136875 
L 283.019236 90.836972 
L 283.640084 91.929893 
L 284.260931 91.48324 
L 284.881779 89.618218 
L 286.123473 84.535434 
L 286.744321 83.047092 
L 287.365168 82.887431 
L 287.986015 83.880604 
L 289.22771 87.032883 
L 289.848558 88.057106 
L 290.469405 88.303824 
L 291.090252 87.777461 
L 292.952794 84.424935 
L 293.573642 83.953905 
L 294.194489 84.081122 
L 296.057031 85.73042 
L 296.677879 85.982689 
L 297.298726 86.030058 
L 297.919573 85.909785 
L 298.540421 85.603849 
L 299.161268 85.074408 
L 301.02381 82.892184 
L 301.644658 82.509743 
L 302.265505 82.456933 
L 303.5072 82.876107 
L 304.128047 82.904076 
L 304.748895 82.530531 
L 305.369742 81.694383 
L 307.232284 78.253279 
L 307.853131 77.719236 
L 308.473979 77.743489 
L 309.094826 78.253992 
L 310.336521 80.105488 
L 311.578216 82.024279 
L 312.199063 82.591151 
L 312.81991 82.654844 
L 313.440758 82.116296 
L 314.061605 81.022237 
L 315.3033 78.123172 
L 315.924147 77.058191 
L 316.544995 76.754297 
L 317.165842 77.391427 
L 319.028384 81.757629 
L 319.649232 82.059719 
L 320.270079 81.300495 
L 321.511774 78.41822 
L 322.132621 77.598339 
L 322.753469 77.732405 
L 323.374316 78.728399 
L 324.616011 81.343873 
L 325.236858 81.854726 
L 325.857705 81.496109 
L 327.0994 79.404474 
L 327.720248 78.754402 
L 328.341095 78.839919 
L 328.961942 79.53631 
L 329.58279 80.406301 
L 330.203637 80.975466 
L 330.824484 81.001318 
L 332.687027 79.747823 
L 333.307874 79.845627 
L 333.928721 80.175629 
L 334.549569 80.349151 
L 335.170416 79.978967 
L 335.791263 78.923417 
L 337.032958 75.887578 
L 337.653806 74.950874 
L 338.274653 74.992393 
L 338.8955 76.131962 
L 339.516348 78.165304 
L 340.758042 82.891367 
L 341.37889 84.451557 
L 341.999737 85.024469 
L 342.620585 84.672344 
L 344.483127 81.871478 
L 345.103974 81.621578 
L 345.724821 81.987068 
L 346.345669 82.870341 
L 348.208211 86.384767 
L 348.829058 87.238977 
L 349.449906 87.864277 
L 350.070753 88.304052 
L 350.6916 88.563684 
L 351.312448 88.580552 
L 351.933295 88.26005 
L 352.554143 87.552206 
L 354.416685 84.271419 
L 355.037532 83.653096 
L 355.658379 83.761204 
L 356.279227 84.75883 
L 356.900074 86.593917 
L 358.762616 93.348693 
L 359.383464 94.370515 
L 360.004311 94.230054 
L 360.625158 93.02357 
L 361.866853 89.507903 
L 362.487701 88.623532 
L 363.108548 88.984354 
L 363.729395 90.540587 
L 364.97109 94.834232 
L 365.591938 95.985116 
L 366.212785 95.810379 
L 366.833632 94.432247 
L 368.075327 90.52067 
L 368.696174 89.33527 
L 369.317022 89.07946 
L 369.937869 89.524372 
L 370.558717 90.140772 
L 371.179564 90.384359 
L 371.800411 89.986398 
L 373.042106 88.217929 
L 373.662953 87.921235 
L 374.283801 88.573798 
L 374.904648 90.131437 
L 376.146343 93.869365 
L 376.76719 94.685423 
L 377.388038 94.244861 
L 378.008885 92.665258 
L 379.25058 88.178908 
L 379.871427 86.435724 
L 380.492275 85.520266 
L 381.113122 85.507926 
L 381.733969 86.257183 
L 382.975664 88.555401 
L 383.596511 89.117057 
L 384.217359 88.779649 
L 384.838206 87.548853 
L 386.079901 84.203327 
L 386.700748 83.281188 
L 387.321596 83.284354 
L 389.184138 85.285888 
L 389.804985 84.924987 
L 390.425833 83.843386 
L 391.667527 81.2148 
L 392.288375 80.589621 
L 392.909222 80.706587 
L 393.530069 81.415716 
L 394.150917 82.349367 
L 394.771764 83.071094 
L 394.771764 83.071094 
" clip-path="url(#p03d1640220)" style="fill: none; stroke: #dd8452; stroke-width: 1.5; stroke-linecap: round"/>
   </g>
   <g id="patch_3">
    <path d="M 69.478781 123.189 
L 69.478781 44.809 
" style="fill: none; stroke: #262626; stroke-width: 1.25; stroke-linejoin: miter; stroke-linecap: square"/>
   </g>
   <g id="patch_4">
    <path d="M 410.261906 123.189 
L 410.261906 44.809 
" style="fill: none; stroke: #262626; stroke-width: 1.25; stroke-linejoin: miter; stroke-linecap: square"/>
   </g>
   <g id="patch_5">
    <path d="M 69.478781 123.189 
L 410.261906 123.189 
" style="fill: none; stroke: #262626; stroke-width: 1.25; stroke-linejoin: miter; stroke-linecap: square"/>
   </g>
   <g id="patch_6">
    <path d="M 69.478781 44.809 
L 410.261906 44.809 
" style="fill: none; stroke: #262626; stroke-width: 1.25; stroke-linejoin: miter; stroke-linecap: square"/>
   </g>
   <g id="legend_1">
    <g id="patch_7">
     <path d="M 310.517687 41.619687 
L 402.561906 41.619687 
Q 404.761906 41.619687 404.761906 39.419688 
L 404.761906 9.4 
Q 404.761906 7.2 402.561906 7.2 
L 310.517687 7.2 
Q 308.317687 7.2 308.317687 9.4 
L 308.317687 39.419688 
Q 308.317687 41.619687 310.517687 41.619687 
z
" style="fill: #ffffff; opacity: 0.8; stroke: #cccccc; stroke-linejoin: miter"/>
    </g>
    <g id="line2d_15">
     <path d="M 312.717687 15.623594 
L 323.717687 15.623594 
L 334.717687 15.623594 
" style="fill: none; stroke: #4c72b0; stroke-width: 1.5; stroke-linecap: round"/>
    </g>
    <g id="text_5">
     <!-- Filtered -->
     <g style="fill: #262626" transform="translate(343.517687 19.473594)scale(0.11 -0.11)">
      <defs>
       <path id="ArialMT-46" d="M 525 0 
L 525 4581 
L 3616 4581 
L 3616 4041 
L 1131 4041 
L 1131 2622 
L 3281 2622 
L 3281 2081 
L 1131 2081 
L 1131 0 
L 525 0 
z
" transform="scale(0.015625)"/>
       <path id="ArialMT-69" d="M 425 3934 
L 425 4581 
L 988 4581 
L 988 3934 
L 425 3934 
z
M 425 0 
L 425 3319 
L 988 3319 
L 988 0 
L 425 0 
z
" transform="scale(0.015625)"/>
       <path id="ArialMT-6c" d="M 409 0 
L 409 4581 
L 972 4581 
L 972 0 
L 409 0 
z
" transform="scale(0.015625)"/>
       <path id="ArialMT-72" d="M 416 0 
L 416 3319 
L 922 3319 
L 922 2816 
Q 1116 3169 1280 3281 
Q 1444 3394 1641 3394 
Q 1925 3394 2219 3213 
L 2025 2691 
Q 1819 2813 1613 2813 
Q 1428 2813 1281 2702 
Q 1134 2591 1072 2394 
Q 978 2094 978 1738 
L 978 0 
L 416 0 
z
" transform="scale(0.015625)"/>
       <path id="ArialMT-64" d="M 2575 0 
L 2575 419 
Q 2259 -75 1647 -75 
Q 1250 -75 917 144 
Q 584 363 401 755 
Q 219 1147 219 1656 
Q 219 2153 384 2558 
Q 550 2963 881 3178 
Q 1213 3394 1622 3394 
Q 1922 3394 2156 3267 
Q 2391 3141 2538 2938 
L 2538 4581 
L 3097 4581 
L 3097 0 
L 2575 0 
z
M 797 1656 
Q 797 1019 1065 703 
Q 1334 388 1700 388 
Q 2069 388 2326 689 
Q 2584 991 2584 1609 
Q 2584 2291 2321 2609 
Q 2059 2928 1675 2928 
Q 1300 2928 1048 2622 
Q 797 2316 797 1656 
z
" transform="scale(0.015625)"/>
      </defs>
      <use xlink:href="#ArialMT-46"/>
      <use xlink:href="#ArialMT-69" x="61.083984"/>
      <use xlink:href="#ArialMT-6c" x="83.300781"/>
      <use xlink:href="#ArialMT-74" x="105.517578"/>
      <use xlink:href="#ArialMT-65" x="133.300781"/>
      <use xlink:href="#ArialMT-72" x="188.916016"/>
      <use xlink:href="#ArialMT-65" x="222.216797"/>
      <use xlink:href="#ArialMT-64" x="277.832031"/>
     </g>
    </g>
    <g id="line2d_16">
     <path d="M 312.717687 31.183437 
L 323.717687 31.183437 
L 334.717687 31.183437 
" style="fill: none; stroke: #dd8452; stroke-width: 1.5; stroke-linecap: round"/>
    </g>
    <g id="text_6">
     <!-- Artifact-free -->
     <g style="fill: #262626" transform="translate(343.517687 35.033437)scale(0.11 -0.11)">
      <defs>
       <path id="ArialMT-41" d="M -9 0 
L 1750 4581 
L 2403 4581 
L 4278 0 
L 3588 0 
L 3053 1388 
L 1138 1388 
L 634 0 
L -9 0 
z
M 1313 1881 
L 2866 1881 
L 2388 3150 
Q 2169 3728 2063 4100 
Q 1975 3659 1816 3225 
L 1313 1881 
z
" transform="scale(0.015625)"/>
       <path id="ArialMT-66" d="M 556 0 
L 556 2881 
L 59 2881 
L 59 3319 
L 556 3319 
L 556 3672 
Q 556 4006 616 4169 
Q 697 4388 901 4523 
Q 1106 4659 1475 4659 
Q 1713 4659 2000 4603 
L 1916 4113 
Q 1741 4144 1584 4144 
Q 1328 4144 1222 4034 
Q 1116 3925 1116 3625 
L 1116 3319 
L 1763 3319 
L 1763 2881 
L 1116 2881 
L 1116 0 
L 556 0 
z
" transform="scale(0.015625)"/>
       <path id="ArialMT-61" d="M 2588 409 
Q 2275 144 1986 34 
Q 1697 -75 1366 -75 
Q 819 -75 525 192 
Q 231 459 231 875 
Q 231 1119 342 1320 
Q 453 1522 633 1644 
Q 813 1766 1038 1828 
Q 1203 1872 1538 1913 
Q 2219 1994 2541 2106 
Q 2544 2222 2544 2253 
Q 2544 2597 2384 2738 
Q 2169 2928 1744 2928 
Q 1347 2928 1158 2789 
Q 969 2650 878 2297 
L 328 2372 
Q 403 2725 575 2942 
Q 747 3159 1072 3276 
Q 1397 3394 1825 3394 
Q 2250 3394 2515 3294 
Q 2781 3194 2906 3042 
Q 3031 2891 3081 2659 
Q 3109 2516 3109 2141 
L 3109 1391 
Q 3109 606 3145 398 
Q 3181 191 3288 0 
L 2700 0 
Q 2613 175 2588 409 
z
M 2541 1666 
Q 2234 1541 1622 1453 
Q 1275 1403 1131 1340 
Q 988 1278 909 1158 
Q 831 1038 831 891 
Q 831 666 1001 516 
Q 1172 366 1500 366 
Q 1825 366 2078 508 
Q 2331 650 2450 897 
Q 2541 1088 2541 1459 
L 2541 1666 
z
" transform="scale(0.015625)"/>
       <path id="ArialMT-63" d="M 2588 1216 
L 3141 1144 
Q 3050 572 2676 248 
Q 2303 -75 1759 -75 
Q 1078 -75 664 370 
Q 250 816 250 1647 
Q 250 2184 428 2587 
Q 606 2991 970 3192 
Q 1334 3394 1763 3394 
Q 2303 3394 2647 3120 
Q 2991 2847 3088 2344 
L 2541 2259 
Q 2463 2594 2264 2762 
Q 2066 2931 1784 2931 
Q 1359 2931 1093 2626 
Q 828 2322 828 1663 
Q 828 994 1084 691 
Q 1341 388 1753 388 
Q 2084 388 2306 591 
Q 2528 794 2588 1216 
z
" transform="scale(0.015625)"/>
       <path id="ArialMT-2d" d="M 203 1375 
L 203 1941 
L 1931 1941 
L 1931 1375 
L 203 1375 
z
" transform="scale(0.015625)"/>
      </defs>
      <use xlink:href="#ArialMT-41"/>
      <use xlink:href="#ArialMT-72" x="66.699219"/>
      <use xlink:href="#ArialMT-74" x="100"/>
      <use xlink:href="#ArialMT-69" x="127.783203"/>
      <use xlink:href="#ArialMT-66" x="150"/>
      <use xlink:href="#ArialMT-61" x="177.783203"/>
      <use xlink:href="#ArialMT-63" x="233.398438"/>
      <use xlink:href="#ArialMT-74" x="283.398438"/>
      <use xlink:href="#ArialMT-2d" x="311.181641"/>
      <use xlink:href="#ArialMT-66" x="344.482422"/>
      <use xlink:href="#ArialMT-72" x="372.265625"/>
      <use xlink:href="#ArialMT-65" x="405.566406"/>
      <use xlink:href="#ArialMT-65" x="461.181641"/>
     </g>
    </g>
   </g>
  </g>
  <g id="axes_2">
   <g id="patch_8">
    <path d="M 69.478781 224.529 
L 410.261906 224.529 
L 410.261906 146.149 
L 69.478781 146.149 
z
" style="fill: #ffffff"/>
   </g>
   <g id="matplotlib.axis_3">
    <g id="xtick_10">
     <g id="line2d_17">
      <path d="M 84.968923 224.529 
L 84.968923 146.149 
" clip-path="url(#p96195d9e0c)" style="fill: none; stroke: #cccccc; stroke-linecap: round"/>
     </g>
     <g id="text_7">
      <!-- 0.0 -->
      <g style="fill: #262626" transform="translate(77.323923 241.902594)scale(0.11 -0.11)">
       <defs>
        <path id="ArialMT-2e" d="M 581 0 
L 581 641 
L 1222 641 
L 1222 0 
L 581 0 
z
" transform="scale(0.015625)"/>
       </defs>
       <use xlink:href="#ArialMT-30"/>
       <use xlink:href="#ArialMT-2e" x="55.615234"/>
       <use xlink:href="#ArialMT-30" x="83.398438"/>
      </g>
     </g>
    </g>
    <g id="xtick_11">
     <g id="line2d_18">
      <path d="M 162.419634 224.529 
L 162.419634 146.149 
" clip-path="url(#p96195d9e0c)" style="fill: none; stroke: #cccccc; stroke-linecap: round"/>
     </g>
     <g id="text_8">
      <!-- 0.5 -->
      <g style="fill: #262626" transform="translate(154.774634 241.902594)scale(0.11 -0.11)">
       <defs>
        <path id="ArialMT-35" d="M 266 1200 
L 856 1250 
Q 922 819 1161 601 
Q 1400 384 1738 384 
Q 2144 384 2425 690 
Q 2706 997 2706 1503 
Q 2706 1984 2436 2262 
Q 2166 2541 1728 2541 
Q 1456 2541 1237 2417 
Q 1019 2294 894 2097 
L 366 2166 
L 809 4519 
L 3088 4519 
L 3088 3981 
L 1259 3981 
L 1013 2750 
Q 1425 3038 1878 3038 
Q 2478 3038 2890 2622 
Q 3303 2206 3303 1553 
Q 3303 931 2941 478 
Q 2500 -78 1738 -78 
Q 1113 -78 717 272 
Q 322 622 266 1200 
z
" transform="scale(0.015625)"/>
       </defs>
       <use xlink:href="#ArialMT-30"/>
       <use xlink:href="#ArialMT-2e" x="55.615234"/>
       <use xlink:href="#ArialMT-35" x="83.398438"/>
      </g>
     </g>
    </g>
    <g id="xtick_12">
     <g id="line2d_19">
      <path d="M 239.870344 224.529 
L 239.870344 146.149 
" clip-path="url(#p96195d9e0c)" style="fill: none; stroke: #cccccc; stroke-linecap: round"/>
     </g>
     <g id="text_9">
      <!-- 1.0 -->
      <g style="fill: #262626" transform="translate(232.225344 241.902594)scale(0.11 -0.11)">
       <use xlink:href="#ArialMT-31"/>
       <use xlink:href="#ArialMT-2e" x="55.615234"/>
       <use xlink:href="#ArialMT-30" x="83.398438"/>
      </g>
     </g>
    </g>
    <g id="xtick_13">
     <g id="line2d_20">
      <path d="M 317.321054 224.529 
L 317.321054 146.149 
" clip-path="url(#p96195d9e0c)" style="fill: none; stroke: #cccccc; stroke-linecap: round"/>
     </g>
     <g id="text_10">
      <!-- 1.5 -->
      <g style="fill: #262626" transform="translate(309.676054 241.902594)scale(0.11 -0.11)">
       <use xlink:href="#ArialMT-31"/>
       <use xlink:href="#ArialMT-2e" x="55.615234"/>
       <use xlink:href="#ArialMT-35" x="83.398438"/>
      </g>
     </g>
    </g>
    <g id="xtick_14">
     <g id="line2d_21">
      <path d="M 394.771764 224.529 
L 394.771764 146.149 
" clip-path="url(#p96195d9e0c)" style="fill: none; stroke: #cccccc; stroke-linecap: round"/>
     </g>
     <g id="text_11">
      <!-- 2.0 -->
      <g style="fill: #262626" transform="translate(387.126764 241.902594)scale(0.11 -0.11)">
       <defs>
        <path id="ArialMT-32" d="M 3222 541 
L 3222 0 
L 194 0 
Q 188 203 259 391 
Q 375 700 629 1000 
Q 884 1300 1366 1694 
Q 2113 2306 2375 2664 
Q 2638 3022 2638 3341 
Q 2638 3675 2398 3904 
Q 2159 4134 1775 4134 
Q 1369 4134 1125 3890 
Q 881 3647 878 3216 
L 300 3275 
Q 359 3922 746 4261 
Q 1134 4600 1788 4600 
Q 2447 4600 2831 4234 
Q 3216 3869 3216 3328 
Q 3216 3053 3103 2787 
Q 2991 2522 2730 2228 
Q 2469 1934 1863 1422 
Q 1356 997 1212 845 
Q 1069 694 975 541 
L 3222 541 
z
" transform="scale(0.015625)"/>
       </defs>
       <use xlink:href="#ArialMT-32"/>
       <use xlink:href="#ArialMT-2e" x="55.615234"/>
       <use xlink:href="#ArialMT-30" x="83.398438"/>
      </g>
     </g>
    </g>
    <g id="text_12">
     <!-- Time [sec] -->
     <g style="fill: #262626" transform="translate(212.425969 256.678219)scale(0.12 -0.12)">
      <defs>
       <path id="ArialMT-54" d="M 1659 0 
L 1659 4041 
L 150 4041 
L 150 4581 
L 3781 4581 
L 3781 4041 
L 2266 4041 
L 2266 0 
L 1659 0 
z
" transform="scale(0.015625)"/>
       <path id="ArialMT-73" d="M 197 991 
L 753 1078 
Q 800 744 1014 566 
Q 1228 388 1613 388 
Q 2000 388 2187 545 
Q 2375 703 2375 916 
Q 2375 1106 2209 1216 
Q 2094 1291 1634 1406 
Q 1016 1563 777 1677 
Q 538 1791 414 1992 
Q 291 2194 291 2438 
Q 291 2659 392 2848 
Q 494 3038 669 3163 
Q 800 3259 1026 3326 
Q 1253 3394 1513 3394 
Q 1903 3394 2198 3281 
Q 2494 3169 2634 2976 
Q 2775 2784 2828 2463 
L 2278 2388 
Q 2241 2644 2061 2787 
Q 1881 2931 1553 2931 
Q 1166 2931 1000 2803 
Q 834 2675 834 2503 
Q 834 2394 903 2306 
Q 972 2216 1119 2156 
Q 1203 2125 1616 2013 
Q 2213 1853 2448 1751 
Q 2684 1650 2818 1456 
Q 2953 1263 2953 975 
Q 2953 694 2789 445 
Q 2625 197 2315 61 
Q 2006 -75 1616 -75 
Q 969 -75 630 194 
Q 291 463 197 991 
z
" transform="scale(0.015625)"/>
      </defs>
      <use xlink:href="#ArialMT-54"/>
      <use xlink:href="#ArialMT-69" x="57.333984"/>
      <use xlink:href="#ArialMT-6d" x="79.550781"/>
      <use xlink:href="#ArialMT-65" x="162.851562"/>
      <use xlink:href="#ArialMT-20" x="218.466797"/>
      <use xlink:href="#ArialMT-5b" x="246.25"/>
      <use xlink:href="#ArialMT-73" x="274.033203"/>
      <use xlink:href="#ArialMT-65" x="324.033203"/>
      <use xlink:href="#ArialMT-63" x="379.648438"/>
      <use xlink:href="#ArialMT-5d" x="429.648438"/>
     </g>
    </g>
   </g>
   <g id="matplotlib.axis_4">
    <g id="ytick_4">
     <g id="line2d_22">
      <path d="M 69.478781 146.149 
L 410.261906 146.149 
" clip-path="url(#p96195d9e0c)" style="fill: none; stroke: #cccccc; stroke-linecap: round"/>
     </g>
     <g id="text_13">
      <!-- −100 -->
      <g style="fill: #262626" transform="translate(35.203 150.085797)scale(0.11 -0.11)">
       <use xlink:href="#ArialMT-2212"/>
       <use xlink:href="#ArialMT-31" x="58.398438"/>
       <use xlink:href="#ArialMT-30" x="114.013672"/>
       <use xlink:href="#ArialMT-30" x="169.628906"/>
      </g>
     </g>
    </g>
    <g id="ytick_5">
     <g id="line2d_23">
      <path d="M 69.478781 185.339 
L 410.261906 185.339 
" clip-path="url(#p96195d9e0c)" style="fill: none; stroke: #cccccc; stroke-linecap: round"/>
     </g>
     <g id="text_14">
      <!-- 0 -->
      <g style="fill: #262626" transform="translate(53.86175 189.275797)scale(0.11 -0.11)">
       <use xlink:href="#ArialMT-30"/>
      </g>
     </g>
    </g>
    <g id="ytick_6">
     <g id="line2d_24">
      <path d="M 69.478781 224.529 
L 410.261906 224.529 
" clip-path="url(#p96195d9e0c)" style="fill: none; stroke: #cccccc; stroke-linecap: round"/>
     </g>
     <g id="text_15">
      <!-- 100 -->
      <g style="fill: #262626" transform="translate(41.627688 228.465797)scale(0.11 -0.11)">
       <use xlink:href="#ArialMT-31"/>
       <use xlink:href="#ArialMT-30" x="55.615234"/>
       <use xlink:href="#ArialMT-30" x="111.230469"/>
      </g>
     </g>
    </g>
    <g id="text_16">
     <!-- Muscle -->
     <g style="fill: #262626" transform="translate(15.93 204.343063)rotate(-90)scale(0.12 -0.12)">
      <defs>
       <path id="ArialMT-4d" d="M 475 0 
L 475 4581 
L 1388 4581 
L 2472 1338 
Q 2622 884 2691 659 
Q 2769 909 2934 1394 
L 4031 4581 
L 4847 4581 
L 4847 0 
L 4263 0 
L 4263 3834 
L 2931 0 
L 2384 0 
L 1059 3900 
L 1059 0 
L 475 0 
z
" transform="scale(0.015625)"/>
       <path id="ArialMT-75" d="M 2597 0 
L 2597 488 
Q 2209 -75 1544 -75 
Q 1250 -75 995 37 
Q 741 150 617 320 
Q 494 491 444 738 
Q 409 903 409 1263 
L 409 3319 
L 972 3319 
L 972 1478 
Q 972 1038 1006 884 
Q 1059 663 1231 536 
Q 1403 409 1656 409 
Q 1909 409 2131 539 
Q 2353 669 2445 892 
Q 2538 1116 2538 1541 
L 2538 3319 
L 3100 3319 
L 3100 0 
L 2597 0 
z
" transform="scale(0.015625)"/>
      </defs>
      <use xlink:href="#ArialMT-4d"/>
      <use xlink:href="#ArialMT-75" x="83.300781"/>
      <use xlink:href="#ArialMT-73" x="138.916016"/>
      <use xlink:href="#ArialMT-63" x="188.916016"/>
      <use xlink:href="#ArialMT-6c" x="238.916016"/>
      <use xlink:href="#ArialMT-65" x="261.132812"/>
     </g>
     <!-- [$\mu$V] -->
     <g style="fill: #262626" transform="translate(28.683 196.499)rotate(-90)scale(0.12 -0.12)">
      <use xlink:href="#ArialMT-5b" transform="translate(0 0.421875)"/>
      <use xlink:href="#DejaVuSans-Oblique-3bc" transform="translate(27.783203 0.421875)"/>
      <use xlink:href="#ArialMT-56" transform="translate(91.40625 0.421875)"/>
      <use xlink:href="#ArialMT-5d" transform="translate(158.105469 0.421875)"/>
     </g>
    </g>
   </g>
   <g id="line2d_25">
    <path d="M 84.968923 180.138411 
L 86.210618 184.111159 
L 86.831465 185.51145 
L 87.452313 186.354926 
L 88.07316 186.649206 
L 88.694008 186.495605 
L 90.55655 185.169606 
L 91.177397 185.087994 
L 91.798244 185.40963 
L 92.419092 186.121347 
L 93.660787 187.976951 
L 94.281634 188.567918 
L 94.902481 188.666766 
L 95.523329 188.278073 
L 96.765023 186.710849 
L 98.006718 185.30586 
L 98.627566 184.865986 
L 99.86926 184.356561 
L 101.110955 184.1257 
L 102.35265 184.239597 
L 102.973497 184.498201 
L 103.594345 184.958757 
L 104.215192 185.670769 
L 105.456887 187.756363 
L 106.698581 189.892891 
L 107.319429 190.66638 
L 108.561124 191.626807 
L 109.802818 192.14987 
L 110.423666 192.081838 
L 111.044513 191.513345 
L 111.66536 190.296973 
L 113.527903 185.201763 
L 114.14875 184.656237 
L 114.769597 185.143941 
L 115.390445 186.440115 
L 116.63214 189.700755 
L 117.252987 190.921444 
L 117.873834 191.693543 
L 119.736376 193.111011 
L 120.357224 194.026122 
L 122.219766 197.413252 
L 122.840613 197.719322 
L 123.461461 197.331859 
L 126.565698 193.019391 
L 127.186545 191.494614 
L 128.42824 187.456283 
L 129.049087 186.21448 
L 129.669934 186.355114 
L 130.290782 187.982368 
L 131.532477 193.116411 
L 132.153324 194.551462 
L 132.774171 194.192574 
L 133.395019 192.13035 
L 134.015866 189.288828 
L 134.636713 187.053848 
L 135.257561 186.613966 
L 135.878408 188.388931 
L 137.74095 199.317955 
L 138.361798 201.265831 
L 138.982645 201.618086 
L 139.603492 200.800757 
L 140.845187 198.437528 
L 141.466035 197.927819 
L 142.086882 198.035224 
L 142.707729 198.582379 
L 143.949424 200.211564 
L 145.191119 201.84978 
L 145.811966 202.280515 
L 146.432814 202.108581 
L 147.053661 201.218755 
L 148.295356 198.323162 
L 148.916203 197.254543 
L 149.53705 196.775413 
L 150.778745 196.474771 
L 151.399593 195.909932 
L 153.262135 193.327018 
L 153.882982 193.120827 
L 154.503829 193.219117 
L 155.124677 193.164352 
L 155.745524 192.47741 
L 156.366372 190.987628 
L 157.608066 187.202696 
L 158.228914 186.28282 
L 158.849761 186.5725 
L 159.470608 187.84615 
L 160.091456 189.469275 
L 160.712303 190.745468 
L 161.333151 191.203539 
L 161.953998 190.681147 
L 162.574845 189.269441 
L 164.437387 183.114586 
L 165.058235 181.885897 
L 165.679082 181.484589 
L 166.29993 181.718692 
L 166.920777 182.173321 
L 167.541624 182.431562 
L 168.162472 182.251269 
L 168.783319 181.593941 
L 169.404167 180.544684 
L 171.887556 175.488628 
L 172.508403 174.89571 
L 173.129251 174.691872 
L 174.370946 174.588267 
L 174.991793 174.222444 
L 176.854335 172.109122 
L 177.475182 171.83552 
L 178.09603 172.011058 
L 179.958572 173.47943 
L 180.579419 173.632788 
L 181.821114 173.467801 
L 183.683656 173.312152 
L 184.925351 173.247677 
L 185.546198 173.31738 
L 188.650435 174.238802 
L 189.89213 174.355138 
L 190.512977 174.165265 
L 191.133825 173.632414 
L 192.996367 171.190349 
L 193.617214 170.949469 
L 194.238062 171.113887 
L 195.479756 171.691298 
L 197.342298 171.766034 
L 197.963146 172.133842 
L 199.204841 173.619405 
L 200.446535 175.159679 
L 202.929925 177.855125 
L 203.550772 178.203766 
L 204.17162 177.94352 
L 204.792467 177.021342 
L 205.413314 175.771802 
L 206.034162 174.826593 
L 206.655009 174.747487 
L 207.275856 175.610719 
L 207.896704 176.896833 
L 208.517551 177.825235 
L 209.138399 177.888373 
L 209.759246 177.172508 
L 210.380093 176.256 
L 211.000941 175.826781 
L 211.621788 176.316746 
L 212.242635 177.732949 
L 213.48433 181.599444 
L 214.105178 182.947505 
L 214.726025 183.587235 
L 215.96772 184.143591 
L 217.209415 185.596268 
L 217.830262 185.792852 
L 218.451109 184.899665 
L 219.692804 181.098423 
L 220.313651 180.019894 
L 220.934499 180.278842 
L 222.797041 183.926101 
L 224.038736 185.007209 
L 224.659583 185.847358 
L 225.901278 187.903074 
L 226.522125 188.326274 
L 227.142973 188.10488 
L 227.76382 187.516793 
L 228.384667 187.101115 
L 229.005515 187.398856 
L 229.626362 188.68136 
L 230.868057 193.288763 
L 231.488904 195.584108 
L 232.109752 197.332384 
L 232.730599 198.416266 
L 233.351446 198.820663 
L 233.972294 198.542838 
L 235.834836 196.196789 
L 236.455683 196.600287 
L 237.697378 199.204834 
L 238.318225 199.984874 
L 238.939073 199.727278 
L 239.55992 198.513899 
L 240.180767 196.884748 
L 240.801615 195.687345 
L 241.422462 195.791834 
L 242.04331 197.622288 
L 243.285004 203.785435 
L 243.905852 205.233099 
L 244.526699 204.172471 
L 245.147546 200.942951 
L 245.768394 196.919572 
L 246.389241 193.711648 
L 247.010089 192.333021 
L 247.630936 192.812066 
L 248.872631 195.801332 
L 249.493478 196.369928 
L 250.114325 195.930112 
L 250.735173 195.021666 
L 251.35602 194.376736 
L 251.976868 194.364408 
L 252.597715 194.736866 
L 253.218562 194.834769 
L 253.83941 194.087163 
L 254.460257 192.452703 
L 255.081104 190.501766 
L 255.701952 189.101349 
L 256.322799 188.938942 
L 256.943647 190.189086 
L 258.806189 197.154206 
L 259.427036 198.229872 
L 260.047883 198.134146 
L 260.668731 197.097932 
L 262.531273 192.6935 
L 263.15212 191.805708 
L 263.772968 191.288203 
L 265.63551 190.35989 
L 266.877205 189.288454 
L 268.739747 187.430575 
L 269.981442 185.468496 
L 270.602289 184.435332 
L 271.223136 183.749517 
L 271.843984 183.662624 
L 272.464831 184.183521 
L 273.706526 185.676245 
L 274.327373 185.778989 
L 274.948221 185.238938 
L 276.810763 182.455434 
L 277.43161 181.924187 
L 278.052457 181.711804 
L 278.673305 181.857213 
L 279.294152 182.387734 
L 281.156694 184.90174 
L 281.777542 185.130699 
L 282.398389 184.744354 
L 283.019236 183.836335 
L 284.260931 181.519383 
L 284.881779 180.670888 
L 285.502626 180.256071 
L 286.123473 180.281502 
L 286.744321 180.645387 
L 287.986015 181.852092 
L 290.469405 184.566156 
L 291.090252 185.075289 
L 291.7111 185.420044 
L 292.952794 185.681107 
L 296.677879 185.83659 
L 297.298726 185.649333 
L 297.919573 185.268023 
L 298.540421 184.667834 
L 299.161268 183.841476 
L 301.644658 179.761307 
L 302.265505 179.386557 
L 302.886352 179.494695 
L 304.748895 180.877626 
L 305.369742 180.93632 
L 307.232284 180.280446 
L 307.853131 180.331153 
L 309.094826 180.649488 
L 309.715674 180.620397 
L 310.957368 180.074036 
L 313.440758 178.597778 
L 314.061605 178.198996 
L 314.682453 178.026118 
L 315.3033 178.287944 
L 315.924147 179.045358 
L 317.165842 181.244147 
L 317.78669 182.080968 
L 318.407537 182.548486 
L 319.649232 183.023616 
L 320.270079 183.462302 
L 321.511774 184.715376 
L 322.132621 185.080201 
L 322.753469 184.99599 
L 323.374316 184.441904 
L 325.236858 181.810643 
L 325.857705 181.28997 
L 326.478553 181.05267 
L 327.720248 180.9111 
L 328.341095 180.678368 
L 328.961942 180.22362 
L 330.203637 178.987874 
L 330.824484 178.545469 
L 331.445332 178.408375 
L 332.066179 178.605763 
L 332.687027 179.078617 
L 333.928721 180.513357 
L 336.412111 183.857697 
L 337.032958 184.160804 
L 337.653806 184.091107 
L 338.8955 183.573054 
L 339.516348 183.625266 
L 340.137195 184.04898 
L 341.37889 185.327251 
L 341.999737 185.539308 
L 342.620585 185.149413 
L 343.241432 184.201394 
L 344.483127 181.722345 
L 345.103974 180.717286 
L 346.345669 179.347786 
L 348.829058 177.069526 
L 349.449906 176.821848 
L 350.070753 176.793611 
L 350.6916 176.971574 
L 351.312448 177.370048 
L 351.933295 178.028958 
L 353.795837 180.837551 
L 354.416685 181.312237 
L 355.037532 181.262035 
L 355.658379 180.754292 
L 356.900074 179.22703 
L 357.520922 178.660387 
L 358.141769 178.420059 
L 358.762616 178.533928 
L 359.383464 178.943822 
L 360.625158 180.277 
L 361.246006 181.161041 
L 361.866853 182.368617 
L 362.487701 184.109421 
L 364.350243 191.380508 
L 364.97109 192.825417 
L 365.591938 193.141421 
L 366.833632 192.165225 
L 367.45448 192.562265 
L 368.075327 194.290047 
L 369.317022 199.772676 
L 369.937869 201.649955 
L 370.558717 202.390299 
L 371.800411 202.561012 
L 372.421259 202.770283 
L 373.042106 202.539271 
L 373.662953 201.074769 
L 374.283801 198.047722 
L 375.525496 189.753916 
L 376.146343 186.480102 
L 376.76719 184.605484 
L 377.388038 184.155685 
L 378.008885 184.914871 
L 378.629732 186.527834 
L 379.871427 190.180208 
L 380.492275 191.235078 
L 381.113122 191.54823 
L 381.733969 191.195155 
L 382.354817 190.215793 
L 382.975664 188.607169 
L 384.838206 182.360505 
L 385.459054 181.273955 
L 386.079901 181.137925 
L 386.700748 181.844368 
L 387.942443 184.672866 
L 388.56329 186.101361 
L 389.184138 187.07522 
L 389.804985 187.420509 
L 390.425833 187.264359 
L 391.04668 186.981865 
L 391.667527 186.938215 
L 392.288375 187.238688 
L 393.530069 188.074434 
L 394.150917 188.197784 
L 394.771764 188.125663 
L 394.771764 188.125663 
" clip-path="url(#p96195d9e0c)" style="fill: none; stroke: #4c72b0; stroke-width: 1.5; stroke-linecap: round"/>
   </g>
   <g id="line2d_26">
    <path d="M 84.968923 188.848433 
L 86.210618 192.54003 
L 86.831465 193.780045 
L 87.452313 194.450443 
L 88.07316 194.559562 
L 88.694008 194.2095 
L 90.55655 192.230679 
L 91.177397 191.910315 
L 91.798244 191.98226 
L 92.419092 192.433207 
L 93.660787 193.734282 
L 94.281634 194.03199 
L 94.902481 193.827458 
L 95.523329 193.125791 
L 98.627566 188.021295 
L 99.86926 186.78076 
L 101.110955 185.791693 
L 102.35265 185.124592 
L 102.973497 184.985313 
L 103.594345 185.043593 
L 104.215192 185.349445 
L 104.836039 185.90123 
L 106.698581 187.926747 
L 107.319429 188.289705 
L 107.940276 188.435738 
L 109.181971 188.352371 
L 109.802818 188.15672 
L 110.423666 187.692874 
L 111.044513 186.732555 
L 111.66536 185.128515 
L 113.527903 178.893824 
L 114.14875 177.975625 
L 114.769597 178.094488 
L 115.390445 179.026393 
L 116.63214 181.576332 
L 117.252987 182.452636 
L 117.873834 182.888738 
L 119.736376 183.353466 
L 120.357224 183.970804 
L 122.219766 186.531824 
L 122.840613 186.587001 
L 123.461461 185.961624 
L 126.565698 180.656748 
L 127.186545 178.972942 
L 128.42824 174.655139 
L 129.049087 173.292337 
L 129.669934 173.324305 
L 130.290782 174.855493 
L 131.532477 179.837763 
L 132.153324 181.218601 
L 132.774171 180.820592 
L 133.395019 178.734301 
L 134.015866 175.883337 
L 134.636713 173.652961 
L 135.257561 173.231307 
L 135.878408 175.03811 
L 137.74095 186.150074 
L 138.361798 188.190554 
L 138.982645 188.651953 
L 139.603492 187.96023 
L 140.845187 185.896139 
L 141.466035 185.559092 
L 142.086882 185.854092 
L 142.707729 186.603566 
L 143.949424 188.681076 
L 145.191119 190.825238 
L 145.811966 191.530263 
L 146.432814 191.646559 
L 147.053661 191.05855 
L 148.295356 188.805238 
L 148.916203 188.075816 
L 149.53705 187.947102 
L 150.778745 188.378909 
L 151.399593 188.195158 
L 152.641287 187.080646 
L 153.262135 186.808498 
L 153.882982 187.016804 
L 154.503829 187.536605 
L 155.124677 187.909915 
L 155.745524 187.657129 
L 156.366372 186.606989 
L 157.608066 183.714813 
L 158.228914 183.246457 
L 158.849761 183.990169 
L 159.470608 185.719892 
L 160.712303 189.536235 
L 161.333151 190.454665 
L 161.953998 190.393318 
L 162.574845 189.442763 
L 164.437387 184.664562 
L 165.058235 183.889822 
L 165.679082 183.938793 
L 166.29993 184.618942 
L 166.920777 185.51491 
L 167.541624 186.209335 
L 168.162472 186.459605 
L 168.783319 186.226697 
L 169.404167 185.595153 
L 171.887556 182.131 
L 172.508403 181.913505 
L 173.129251 182.075113 
L 174.370946 182.671028 
L 174.991793 182.638628 
L 175.61264 182.295937 
L 176.854335 181.456052 
L 177.475182 181.468296 
L 178.09603 181.916932 
L 179.958572 184.126021 
L 180.579419 184.499562 
L 181.821114 184.733908 
L 184.925351 185.26604 
L 186.167046 185.724813 
L 187.40874 186.345456 
L 188.650435 186.686926 
L 189.89213 186.832295 
L 190.512977 186.635822 
L 191.133825 186.082406 
L 192.996367 183.49539 
L 193.617214 183.178632 
L 194.238062 183.253587 
L 195.479756 183.612108 
L 197.342298 183.261699 
L 197.963146 183.462802 
L 198.583993 183.945634 
L 200.446535 185.704597 
L 202.929925 187.445584 
L 203.550772 187.531778 
L 204.17162 187.00034 
L 204.792467 185.79857 
L 206.034162 183.020591 
L 206.655009 182.63841 
L 207.275856 183.1914 
L 207.896704 184.16057 
L 208.517551 184.765836 
L 209.138399 184.50014 
L 211.000941 181.421873 
L 211.621788 181.564123 
L 212.242635 182.628929 
L 213.48433 185.783786 
L 214.105178 186.772759 
L 214.726025 187.051932 
L 215.96772 186.884606 
L 217.209415 187.613142 
L 217.830262 187.448661 
L 218.451109 186.195664 
L 219.692804 181.679821 
L 220.313651 180.246995 
L 220.934499 180.154033 
L 222.797041 182.764114 
L 224.038736 183.173565 
L 224.659583 183.680192 
L 225.901278 185.08119 
L 226.522125 185.183997 
L 227.142973 184.647356 
L 228.384667 183.029796 
L 229.005515 183.029543 
L 229.626362 184.020363 
L 230.247209 185.858705 
L 231.488904 190.089382 
L 232.109752 191.57479 
L 232.730599 192.403913 
L 233.351446 192.56194 
L 233.972294 192.046372 
L 235.834836 189.040752 
L 236.455683 189.242883 
L 237.697378 191.473759 
L 238.318225 192.081978 
L 238.939073 191.662824 
L 239.55992 190.298235 
L 240.180767 188.528232 
L 240.801615 187.200303 
L 241.422462 187.184573 
L 242.04331 188.905163 
L 243.285004 194.880277 
L 243.905852 196.250172 
L 244.526699 195.122769 
L 245.147546 191.837411 
L 245.768394 187.768934 
L 246.389241 184.52639 
L 247.010089 183.12339 
L 247.630936 183.588161 
L 248.872631 186.579015 
L 249.493478 187.16345 
L 250.114325 186.749423 
L 250.735173 185.876582 
L 251.35602 185.276912 
L 251.976868 185.319346 
L 252.597715 185.755937 
L 253.218562 185.927224 
L 253.83941 185.262089 
L 254.460257 183.718963 
L 255.081104 181.867926 
L 255.701952 180.575652 
L 256.322799 180.529328 
L 256.943647 181.903258 
L 258.806189 189.284523 
L 259.427036 190.513434 
L 260.047883 190.577919 
L 260.668731 189.708606 
L 262.531273 185.84151 
L 263.15212 185.143819 
L 263.772968 184.82135 
L 265.63551 184.504943 
L 266.877205 183.861052 
L 268.739747 182.667977 
L 269.360594 181.999243 
L 270.602289 180.358006 
L 271.223136 179.903477 
L 271.843984 180.048692 
L 272.464831 180.802235 
L 273.706526 182.761069 
L 274.327373 183.096969 
L 274.948221 182.789897 
L 276.810763 180.701426 
L 277.43161 180.399465 
L 278.052457 180.414675 
L 278.673305 180.785754 
L 279.294152 181.53985 
L 281.156694 184.710821 
L 281.777542 185.153834 
L 282.398389 184.978859 
L 283.019236 184.279349 
L 284.260931 182.370036 
L 284.881779 181.72027 
L 285.502626 181.500554 
L 286.123473 181.71732 
L 286.744321 182.268668 
L 287.986015 183.838379 
L 290.469405 187.229158 
L 291.090252 187.89693 
L 291.7111 188.396049 
L 292.952794 188.95292 
L 296.677879 189.890278 
L 297.298726 189.817682 
L 297.919573 189.546517 
L 298.540421 189.051918 
L 299.161268 188.326531 
L 301.644658 184.602411 
L 302.265505 184.31782 
L 302.886352 184.510772 
L 304.748895 186.115999 
L 305.369742 186.238068 
L 307.232284 185.739898 
L 307.853131 185.832284 
L 309.094826 186.217619 
L 309.715674 186.213889 
L 310.336521 186.016332 
L 312.81991 184.661609 
L 314.061605 183.820898 
L 314.682453 183.631168 
L 315.3033 183.871036 
L 315.924147 184.601454 
L 317.165842 186.731487 
L 317.78669 187.526746 
L 318.407537 187.948043 
L 319.649232 188.317127 
L 320.270079 188.696185 
L 321.511774 189.817367 
L 322.132621 190.110172 
L 322.753469 189.950049 
L 323.374316 189.316261 
L 325.236858 186.424037 
L 325.857705 185.809377 
L 326.478553 185.47475 
L 327.720248 185.128956 
L 328.341095 184.789569 
L 328.961942 184.225298 
L 330.824484 182.202461 
L 331.445332 181.945471 
L 332.066179 182.020677 
L 332.687027 182.369215 
L 333.928721 183.549566 
L 336.412111 186.366549 
L 337.032958 186.534844 
L 337.653806 186.329422 
L 338.8955 185.537622 
L 339.516348 185.452012 
L 340.137195 185.737411 
L 341.37889 186.738049 
L 341.999737 186.811031 
L 342.620585 186.282039 
L 343.241432 185.194989 
L 345.103974 181.294971 
L 346.345669 179.65 
L 348.829058 176.828219 
L 349.449906 176.446728 
L 350.070753 176.285722 
L 350.6916 176.332074 
L 351.312448 176.600193 
L 351.933295 177.130092 
L 353.795837 179.560592 
L 354.416685 179.912602 
L 355.037532 179.741613 
L 355.658379 179.115083 
L 356.900074 177.356533 
L 357.520922 176.677485 
L 358.141769 176.326982 
L 358.762616 176.332992 
L 359.383464 176.637456 
L 360.625158 177.76754 
L 361.246006 178.55411 
L 361.866853 179.667034 
L 362.487701 181.316081 
L 364.350243 188.330478 
L 364.97109 189.696464 
L 365.591938 189.937027 
L 366.833632 188.820505 
L 367.45448 189.152694 
L 368.075327 190.819239 
L 369.317022 196.190681 
L 369.937869 198.018244 
L 370.558717 198.712876 
L 371.800411 198.804162 
L 372.421259 198.979692 
L 373.042106 198.718929 
L 373.662953 197.228665 
L 374.283801 194.17979 
L 375.525496 185.853576 
L 376.146343 182.568807 
L 376.76719 180.686493 
L 377.388038 180.232127 
L 378.008885 180.98981 
L 378.629732 182.60433 
L 379.871427 186.269245 
L 380.492275 187.335254 
L 381.113122 187.662836 
L 381.733969 187.327431 
L 382.354817 186.368853 
L 382.975664 184.783949 
L 384.838206 178.624162 
L 385.459054 177.571394 
L 386.079901 177.47149 
L 386.700748 178.216401 
L 387.942443 181.128802 
L 388.56329 182.60266 
L 389.184138 183.624114 
L 389.804985 184.019206 
L 390.425833 183.915051 
L 391.04668 183.686713 
L 391.667527 183.699336 
L 392.288375 184.058152 
L 393.530069 185.01664 
L 394.150917 185.204367 
L 394.771764 185.198638 
L 394.771764 185.198638 
" clip-path="url(#p96195d9e0c)" style="fill: none; stroke: #dd8452; stroke-width: 1.5; stroke-linecap: round"/>
   </g>
   <g id="patch_9">
    <path d="M 69.478781 224.529 
L 69.478781 146.149 
" style="fill: none; stroke: #262626; stroke-width: 1.25; stroke-linejoin: miter; stroke-linecap: square"/>
   </g>
   <g id="patch_10">
    <path d="M 410.261906 224.529 
L 410.261906 146.149 
" style="fill: none; stroke: #262626; stroke-width: 1.25; stroke-linejoin: miter; stroke-linecap: square"/>
   </g>
   <g id="patch_11">
    <path d="M 69.478781 224.529 
L 410.261906 224.529 
" style="fill: none; stroke: #262626; stroke-width: 1.25; stroke-linejoin: miter; stroke-linecap: square"/>
   </g>
   <g id="patch_12">
    <path d="M 69.478781 146.149 
L 410.261906 146.149 
" style="fill: none; stroke: #262626; stroke-width: 1.25; stroke-linejoin: miter; stroke-linecap: square"/>
   </g>
  </g>
 </g>
 <defs>
  <clipPath id="p03d1640220">
   <rect x="69.478781" y="44.809" width="340.783125" height="78.38"/>
  </clipPath>
  <clipPath id="p96195d9e0c">
   <rect x="69.478781" y="146.149" width="340.783125" height="78.38"/>
  </clipPath>
 </defs>
</svg>
